Coordinates
version=1
nRows=29
nColumns=24
inDegrees=yes

Units are S.I. units (second, meters, Newtons, ...)
Angles are in degrees.

endheader
time	pelvis_tilt	pelvis_list	pelvis_rotation	pelvis_tx	pelvis_ty	pelvis_tz	hip_flexion_r	hip_adduction_r	hip_rotation_r	knee_angle_r	ankle_angle_r	subtalar_angle_r	mtp_angle_r	hip_flexion_l	hip_adduction_l	hip_rotation_l	knee_angle_l	ankle_angle_l	subtalar_angle_l	mtp_angle_l	lumbar_extension	lumbar_bending	lumbar_rotation
      3.49000000	     68.12765732	      5.05518845	     -1.15172050	      0.55755046	      1.05739461	     -0.30448582	     -0.44515779	    -13.05406664	      4.34721645	    -62.49858612	    -16.51531821	     -1.97948471	      0.00000000	      2.75335889	     -6.73913562	      8.33208971	      4.84856188	    -21.67932643	     12.85776487	      0.00000000	      0.00000000	      0.00000000	      0.00000000
      3.50000000	     68.12985393	      5.05379537	     -1.15176817	      0.55754518	      1.05739369	     -0.30449250	     -0.44551389	    -13.05325485	      4.34764820	    -62.49701729	    -16.51631689	     -1.97971578	      0.00000000	      2.75608521	     -6.74053552	      8.33417756	      4.85131924	    -21.67573303	     12.86443481	      0.00000000	      0.00000000	      0.00000000	      0.00000000
      3.51000000	     68.13213038	      5.05208869	     -1.15203260	      0.55754289	      1.05738999	     -0.30450090	     -0.44594900	    -13.05236555	      4.34839809	    -62.49540346	    -16.51674806	     -1.97988928	      0.00000000	      2.75985486	     -6.74231937	      8.33846408	      4.85281928	    -21.66837501	     12.86748122	      0.00000000	      0.00000000	      0.00000000	      0.00000000
      3.52000000	     68.13431796	      5.05060145	     -1.15197317	      0.55754068	      1.05738043	     -0.30450574	     -0.44655628	    -13.05136843	      4.34931020	    -62.49360372	    -16.51650772	     -1.98048796	      0.00000000	      2.76374643	     -6.74493501	      8.34562951	      4.85359991	    -21.65727233	     12.86711546	      0.00000000	      0.00000000	      0.00000000	      0.00000000
      3.53000000	     68.13617820	      5.04972867	     -1.15136512	      0.55753573	      1.05736775	     -0.30450302	     -0.44721674	    -13.05025191	      4.35029565	    -62.49139667	    -16.51557729	     -1.98187083	      0.00000000	      2.76691652	     -6.74865829	      8.35534142	      4.85462103	    -21.64337831	     12.86400016	      0.00000000	      0.00000000	      0.00000000	      0.00000000
      3.54000000	     68.13768054	      5.04942232	     -1.15060231	      0.55752920	      1.05735861	     -0.30449316	     -0.44779539	    -13.04907919	      4.35130118	    -62.48858854	    -16.51406289	     -1.98416349	      0.00000000	      2.76920812	     -6.75318218	      8.36624030	      4.85721739	    -21.62861719	     12.85902894	      0.00000000	      0.00000000	      0.00000000	      0.00000000
      3.55000000	     68.13896133	      5.04928919	     -1.15041875	      0.55752458	      1.05735705	     -0.30448122	     -0.44828860	    -13.04796813	      4.35229379	    -62.48515551	    -16.51216457	     -1.98722514	      0.00000000	      2.77108699	     -6.75765464	      8.37634943	      4.86265708	    -21.61550487	     12.85311946	      0.00000000	      0.00000000	      0.00000000	      0.00000000
      3.56000000	     68.13998820	      5.04900998	     -1.15114468	      0.55752313	      1.05736033	     -0.30447364	     -0.44884857	    -13.04705075	      4.35326235	    -62.48135559	    -16.51008779	     -1.99071190	      0.00000000	      2.77293922	     -6.76124463	      8.38375136	      4.87150487	    -21.60645581	     12.84706521	      0.00000000	      0.00000000	      0.00000000	      0.00000000
      3.57000000	     68.14071517	      5.04859720	     -1.15233708	      0.55752398	      1.05736378	     -0.30447285	     -0.44971988	    -13.04635129	      4.35414118	    -62.47768489	    -16.50795602	     -1.99420368	      0.00000000	      2.77481514	     -6.76360902	      8.38726838	      4.88347703	    -21.60305552	     12.84144790	      0.00000000	      0.00000000	      0.00000000	      0.00000000
      3.58000000	     68.14152904	      5.04827519	     -1.15316019	      0.55752510	      1.05736682	     -0.30447502	     -0.45116997	    -13.04567678	      4.35470571	    -62.47468076	    -16.50577845	     -1.99733219	      0.00000000	      2.77675406	     -6.76492822	      8.38688332	      4.89780500	    -21.60560171	     12.83659481	      0.00000000	      0.00000000	      0.00000000	      0.00000000
      3.59000000	     68.14308555	      5.04822349	     -1.15300697	      0.55752254	      1.05737084	     -0.30447407	     -0.45340551	    -13.04466816	      4.35459125	    -62.47268747	    -16.50349990	     -1.99985014	      0.00000000	      2.77881803	     -6.76574456	      8.38371387	      4.91352306	    -21.61309022	     12.83257375	      0.00000000	      0.00000000	      0.00000000	      0.00000000
      3.60000000	     68.14566645	      5.04844151	     -1.15178496	      0.55751415	      1.05737431	     -0.30446619	     -0.45645579	    -13.04298542	      4.35346731	    -62.47169887	    -16.50111353	     -2.00162468	      0.00000000	      2.78074590	     -6.76681003	      8.37956354	      4.92952156	    -21.62362971	     12.82923335	      0.00000000	      0.00000000	      0.00000000	      0.00000000
      3.61000000	     68.14898692	      5.04865315	     -1.14984817	      0.55750426	      1.05737455	     -0.30445078	     -0.46016818	    -13.04052178	      4.35125990	    -62.47138023	    -16.49877131	     -2.00258994	      0.00000000	      2.78205418	     -6.76884630	      8.37629610	      4.94473798	    -21.63510402	     12.82629386	      0.00000000	      0.00000000	      0.00000000	      0.00000000
      3.62000000	     68.15254322	      5.04831452	     -1.14780850	      0.55749920	      1.05737232	     -0.30443175	     -0.46433768	    -13.03747779	      4.34824423	    -62.47126127	    -16.49681570	     -2.00271011	      0.00000000	      2.78257791	     -6.77222091	      8.37531132	      4.95850877	    -21.64580869	     12.82346601	      0.00000000	      0.00000000	      0.00000000	      0.00000000
      3.63000000	     68.15593662	      5.04702006	     -1.14628647	      0.55749953	      1.05737171	     -0.30441926	     -0.46875317	    -13.03421314	      4.34492278	    -62.47097265	    -16.49569377	     -2.00198237	      0.00000000	      2.78266460	     -6.77688447	      8.37725909	      4.97070779	    -21.65480810	     12.82054215	      0.00000000	      0.00000000	      0.00000000	      0.00000000
      3.64000000	     68.15900200	      5.04492063	     -1.14563881	      0.55750127	      1.05737477	     -0.30442016	     -0.47311378	    -13.03105085	      4.34179801	    -62.47041564	    -16.49578172	     -2.00047167	      0.00000000	      2.78289280	     -6.78252532	      8.38200163	      4.98160754	    -21.66193977	     12.81742709	      0.00000000	      0.00000000	      0.00000000	      0.00000000
      3.65000000	     68.16176262	      5.04259770	     -1.14581209	      0.55750177	      1.05737718	     -0.30442764	     -0.47697788	    -13.02821345	      4.33918894	    -62.46978926	    -16.49720200	     -1.99833734	      0.00000000	      2.78367109	     -6.78866054	      8.38877781	      4.99162870	    -21.66759284	     12.81411448	      0.00000000	      0.00000000	      0.00000000	      0.00000000
      3.66000000	     68.16426079	      5.04069151	     -1.14642988	      0.55750012	      1.05737406	     -0.30443112	     -0.47988206	    -13.02582020	      4.33712543	    -62.46945140	    -16.49972850	     -1.99580476	      0.00000000	      2.78502694	     -6.79474821	      8.39650667	      5.00111494	    -21.67242992	     12.81063237	      0.00000000	      0.00000000	      0.00000000	      0.00000000
      3.67000000	     68.16640195	      5.03968051	     -1.14704166	      0.55749546	      1.05736798	     -0.30442877	     -0.48162255	    -13.02385314	      4.33532799	    -62.46969991	    -16.50282844	     -1.99307671	      0.00000000	      2.78671092	     -6.80033816	      8.40414542	      5.01022987	    -21.67714578	     12.80701093	      0.00000000	      0.00000000	      0.00000000	      0.00000000
      3.68000000	     68.16798132	      5.03969203	     -1.14733016	      0.55748960	      1.05736507	     -0.30442316	     -0.48246935	    -13.02219222	      4.33334287	    -62.47062301	    -16.50581742	     -1.99023309	      0.00000000	      2.78849611	     -6.80512529	      8.41097172	      5.01900566	    -21.68228024	     12.80331174	      0.00000000	      0.00000000	      0.00000000	      0.00000000
      3.69000000	     68.16890878	      5.04044379	     -1.14715679	      0.55748720	      1.05736696	     -0.30441421	     -0.48304491	    -13.02074823	      4.33080492	    -62.47209229	    -16.50805994	     -1.98717774	      0.00000000	      2.79038967	     -6.80903165	      8.41668225	      5.02745220	    -21.68808449	     12.79968808	      0.00000000	      0.00000000	      0.00000000	      0.00000000
      3.70000000	     68.16940063	      5.04143284	     -1.14655369	      0.55749040	      1.05737050	     -0.30440181	     -0.48391970	    -13.01950889	      4.32762972	    -62.47386616	    -16.50914318	     -1.98366764	      0.00000000	      2.79257053	     -6.81227645	      8.42130796	      5.03560582	    -21.69446141	     12.79640389	      0.00000000	      0.00000000	      0.00000000	      0.00000000
      3.71000000	     68.16987745	      5.04209958	     -1.14570386	      0.55749626	      1.05737300	     -0.30439178	     -0.48528927	    -13.01843931	      4.32403162	    -62.47574570	    -16.50897911	     -1.97941997	      0.00000000	      2.79513728	     -6.81522406	      8.42503030	      5.04349657	    -21.70100227	     12.79376292	      0.00000000	      0.00000000	      0.00000000	      0.00000000
      3.72000000	     68.17065444	      5.04200846	     -1.14481857	      0.55749992	      1.05737484	     -0.30439451	     -0.48697240	    -13.01737678	      4.32043461	    -62.47769768	    -16.50782325	     -1.97425044	      0.00000000	      2.79795226	     -6.81820512	      8.42797729	      5.05112853	    -21.70710987	     12.79195497	      0.00000000	      0.00000000	      0.00000000	      0.00000000
      3.73000000	     68.17178143	      5.04113768	     -1.14400383	      0.55749953	      1.05737644	     -0.30441023	     -0.48861194	    -13.01601825	      4.31732229	    -62.47985759	    -16.50620649	     -1.96818761	      0.00000000	      2.80077876	     -6.82144619	      8.43006756	      5.05856219	    -21.71220421	     12.79088314	      0.00000000	      0.00000000	      0.00000000	      0.00000000
      3.74000000	     68.17311419	      5.03991298	     -1.14332030	      0.55749768	      1.05737652	     -0.30442289	     -0.48984581	    -13.01406206	      4.31507181	    -62.48241180	    -16.50478826	     -1.96153132	      0.00000000	      2.80356922	     -6.82497305	      8.43098596	      5.06603181	    -21.71601856	     12.79007042	      0.00000000	      0.00000000	      0.00000000	      0.00000000
      3.75000000	     68.17440479	      5.03878093	     -1.14294259	      0.55749743	      1.05737407	     -0.30442030	     -0.49034032	    -13.01151022	      4.31388782	    -62.48543824	    -16.50417008	     -1.95484257	      0.00000000	      2.80657796	     -6.82852770	      8.43033863	      5.07395395	    -21.71890470	     12.78872526	      0.00000000	      0.00000000	      0.00000000	      0.00000000
      3.76000000	     68.17530634	      5.03777486	     -1.14312769	      0.55749910	      1.05736918	     -0.30441006	     -0.48976964	    -13.00888398	      4.31382277	    -62.48881239	    -16.50472160	     -1.94885976	      0.00000000	      2.81018104	     -6.83164647	      8.42792128	      5.08280185	    -21.72198391	     12.78596631	      0.00000000	      0.00000000	      0.00000000	      0.00000000
      3.77000000	     68.17541203	      5.03662797	     -1.14404505	      0.55750047	      1.05736308	     -0.30440867	     -0.48789647	    -13.00702638	      4.31472688	    -62.49225448	    -16.50647462	     -1.94434714	      0.00000000	      2.81463935	     -6.83388449	      8.42395930	      5.09296908	    -21.72699407	     12.78113558	      0.00000000	      0.00000000	      0.00000000	      0.00000000
